Patient4_TMGait_0pt4_01_right_18_EMG.mot
version=1
nRows=20
nColumns=33
inDegrees=no
endheader
time	1LAddLong	2LGlutMax	3LGlutMed	4LIliopsoas	5LSemiMemb	6LBicFemLong	7LRecFem	8LVastMed	9LVastLat	10LGasMed	11LTibAnt	12lTibPost	13LPeroneusLong	14LSol	15LExtDigLong	16LFlexDigLong	17RAddLong	18RGlutMax	19RGlutMed	20RIliopsoas	21RSemiMemb	22RBicFemLong	23RRecFem	24RVastMed	25RVastLat	26RGasMed	27RTibAnt	28RTibPost	29RPeroneusLong	30RSol	31RExtDigLong	32RFlexDigLong
23.76	-0.002594	-0.000153	0.14069	-0.001068	-0.002747	-0.025482	0.09903	0.002289	-0.035095	0.044098	-0.021515	0.24796	0.27664	-0.031433	-0.098419	-0.014954	-0.028687	-1.2616	-0.51071	-0.046082	-0.19272	-0.016632	0.055084	0.054321	0.082245	0.036774	0.14511	0.02655	1.2144	-0.019836	0.001373	-0.016327
23.761	-0.000763	0.01358	0.15961	-0.016174	0.019379	-0.010986	0.079041	-0.001526	-0.023499	0.065155	-0.020599	-0.076141	0.28015	0.37552	-0.027618	-0.071411	-0.007782	-1.2593	-0.40482	-0.051117	0.24323	-0.083771	0.16861	-0.036316	-0.021362	0.023804	0.19867	-0.002747	0.93964	0.076141	0.004578	-0.012207
23.762	0.006256	0.0383	0.18555	0.003204	-0.00885	-0.008087	0.10605	0.007172	-0.019226	0.048065	-0.020294	-0.02533	0.16556	1.1794	0.039368	0.023956	-0.000916	-1.2521	-0.27832	0.000153	0.17487	-0.076141	0.26443	-0.12192	-0.057068	-0.012512	0.21484	-0.027771	-0.6543	0.12314	-0.004883	-0.00885
23.763	-0.009308	0.070343	0.17716	0.013275	-0.002747	-0.021515	0.097046	0.002594	-0.019684	0.00946	-0.018311	-0.19409	0.10132	0.578	0.056763	0.010681	0.002747	-1.236	-0.36896	0.0383	-0.12573	-0.029755	0.30762	-0.12405	-0.081482	-0.023346	0.055847	-0.014648	-0.90805	-0.21835	0.000763	0.000916
23.764	0.008698	0.12695	0.14313	-0.007324	0.003052	-0.014954	0.091248	0.010681	-0.016174	0.014648	-0.018158	0.16052	0.028687	-0.26504	0.070343	-0.033875	-0.016479	-1.0898	-0.21286	0.13351	-0.002441	0.054321	0.24033	-0.054779	-0.083618	-0.012665	-0.25864	-0.010681	-0.02655	-0.43411	0.000153	-0.003967
23.765	0.00351	0.12451	0.063629	0.007172	0.00351	0.000916	0.093231	0.020599	-0.004272	0.03952	-0.008392	-0.026245	-0.054779	-0.73776	0.023651	-0.025635	-0.019226	-1.0516	-0.39475	0.27084	0.013428	0.14252	0.21744	0.048981	-0.055847	-0.006714	-0.01358	-0.044861	0.18005	-0.31525	0.003357	-0.014801
23.766	-0.001526	0.16266	0.028992	0.009918	0.001831	-0.011597	0.14374	0.01236	-0.005951	0.024872	0.01297	-0.085754	-0.10742	-1.2724	-0.007019	-0.022278	-0.028992	-1.0214	-0.47928	0.11871	0.020905	0.065155	0.22553	-0.032959	-0.11322	0.025635	0.10559	-0.079651	-0.066986	-0.090942	0.000305	-0.018768
23.767	0.000305	0.19073	0.076447	0.002594	0.001526	-0.001984	0.15427	0.014801	-0.008392	-0.00061	-0.008698	-0.052643	-0.093689	-0.88592	-0.020142	-0.013733	0.035095	-1.0257	-0.27756	0.021057	0.048065	-0.04425	0.14618	-0.16205	-0.12741	0.055084	0.17517	-0.23987	-0.67215	-0.14648	0.001831	-0.021057
23.768	-0.006104	0.22903	0.078278	-0.012817	-0.001526	-0.015259	0.21439	0.012665	-0.007629	-0.0177	0.004272	-0.045319	-0.059814	-0.43701	-0.00412	0.054474	0.059204	-1.0683	-0.56564	-0.061646	0.09079	-0.27359	0.009003	-0.2446	-0.13168	0.044556	0.020294	0.21759	0.14236	-0.11063	0.003967	-0.016785
23.769	-0.00412	0.2182	0.077667	-0.00351	-0.001373	-0.02121	0.26077	0.009308	0.000153	-0.017548	-0.003815	-0.018616	-0.034027	0.15961	0.004883	0.042114	0.093079	-1.1285	-0.86319	-0.1178	-0.001678	-0.33157	0.056	-0.30975	-0.07019	-0.003357	-0.001221	0.090332	-0.29465	0.10223	0.00061	-0.016327
23.77	0.000458	0.23636	0.082245	0.001526	-0.005341	-0.027161	0.298	0.007629	-0.012665	-0.011444	-0.00946	-0.003357	-0.046997	0.31906	0.017242	0.004578	0.10513	-1.0776	-0.82962	-0.065765	-0.33676	-0.24094	0.097046	-0.21057	-0.069122	-0.006561	-0.021057	0.023346	0.003662	0.16464	0.00351	-0.022583
23.771	0.003815	0.24612	0.079498	-0.005951	-0.005798	-0.0354	0.31326	0.002747	-0.012207	0.002136	-0.003662	0.005646	-0.066986	0.12955	-0.003052	-0.010529	0.037842	-0.99274	-0.69427	-0.023956	-0.39902	-0.14771	0.10681	-0.044556	-0.004425	-0.023499	-0.072784	0.013275	-0.054932	0.042114	0	-0.019226
23.772	0.01236	0.25223	0.082397	0.004578	-0.000916	-0.023499	0.36407	0.010376	-0.005798	0.005951	-0.00412	0.009155	-0.059662	0.077972	-0.024567	-0.00351	-0.010834	-0.94742	-0.018311	0.10162	0.071716	-0.095215	0.10178	0.059967	0.018005	-0.010071	0.06546	0.003967	0.32181	0.085907	0.009155	-0.01358
23.773	0.00824	0.23514	0.065308	-0.000916	0.000153	-0.020294	0.27878	0.010376	-0.035858	0.014801	-0.00412	0.007477	-0.059357	0.16098	-0.010681	0.007019	-0.036163	-1.0304	0.014496	0.13947	0.33722	-0.04364	0.094452	0.011444	0.00946	-0.002136	0.2417	-0.000153	0.4039	0.15991	0.000916	-0.010071
23.774	0.013123	0.24597	0.063629	0.004883	-0.000458	-0.028534	0.23392	0.006561	-0.020447	0.015106	0.009155	-0.001678	-0.14236	0.076141	-0.013123	-0.016937	-0.025482	-1.0182	-0.41412	0.034943	-0.005341	0.13123	0.097046	-0.049591	0.086823	-0.002136	0.49286	-0.003815	0.38025	0.15625	0.002899	-0.015869
23.775	0.011139	0.26199	0.067291	0.001831	0.004578	-0.033112	0.18601	0.012817	-0.025024	0.003204	-0.004272	0.014954	-0.16464	0.003052	-0.028076	0.00824	-0.012665	-0.923	-0.44632	0.023193	-0.10178	0.094299	0.064545	-0.091553	0.12482	-0.004578	0.51163	-0.01358	0.47058	0.007172	0.00885	-0.003052
23.776	0.007019	0.26276	0.061493	-0.012207	-0.00351	-0.020752	0.11017	0.013275	-0.016785	0.00412	0.008698	0.013733	-0.063324	0.030823	-0.035706	0.023346	0.052643	-0.77682	-0.39414	-0.016022	-0.37201	-0.1239	0.042267	-0.050201	0.10239	0.003815	0.35126	-0.012665	-0.18204	0.004883	-0.00061	-0.003967
23.777	0.008545	0.27161	0.043945	-0.004425	0.006866	-0.025482	0.12589	0.012512	-0.021362	0.002594	-0.007782	0.009613	0.15106	0.049591	-0.032043	0.001831	0.15076	-0.68893	-0.31967	-0.033875	-0.19119	-0.46448	0.001068	-0.083618	0.11688	0.005646	-0.29541	-0.014801	-0.50491	0.019379	-0.00061	-0.002899
23.778	0.012207	0.30243	0.051575	-0.014191	0.006714	-0.032806	0.10956	0.012512	-0.00946	0.013733	-0.004425	0.008545	0.017548	0.033875	-0.036316	0.006866	0.17883	-0.49835	-0.13855	-0.054169	-0.13916	-0.45425	-0.065155	-0.10941	0.057983	0.010071	-0.71137	-0.015717	0.1442	-0.075989	0.000458	-0.004578
23.779	0.001526	0.32135	0.045776	-0.001678	-0.000916	-0.014343	0.041046	0.014954	0.014648	0.016937	-0.003357	0.005035	0.018921	0.026093	-0.042725	-0.005951	0.083008	-0.41229	0.023499	-0.060272	-0.14816	-0.20966	-0.13443	0.10056	0.099487	0.004272	-0.46066	-0.012665	0.29465	-0.18356	0.001678	-0.000916
